<?xml version="1.0" encoding="UTF-8" standalone="no"?>
<!DOCTYPE svg PUBLIC "-//W3C//DTD SVG 20010904//EN"
              "http://www.w3.org/TR/2001/REC-SVG-20010904/DTD/svg10.dtd">

<svg xmlns="http://www.w3.org/2000/svg"
     viewBox="0 0 64 64">
  <path id="Selection"
        fill="darkred" stroke="black" stroke-width="1"
        d="M 17.00,11.00
           C 17.00,11.00 25.30,11.99 25.30,11.99
             25.30,11.99 32.00,31.00 32.00,31.00
             32.00,31.00 39.56,12.02 39.56,12.02
             39.56,12.02 48.00,11.00 48.00,11.00
             48.00,11.00 48.00,57.00 48.00,57.00
             48.00,57.00 41.00,57.00 41.00,57.00
             41.00,57.00 40.00,21.00 40.00,21.00
             40.00,21.00 33.87,41.43 33.87,41.43
             33.87,41.43 30.00,43.00 30.00,43.00
             30.00,43.00 24.00,22.00 24.00,22.00
             24.00,22.00 24.00,57.00 24.00,57.00
             24.00,57.00 17.00,57.00 17.00,57.00
             17.00,57.00 17.00,11.00 17.00,11.00 Z" />
</svg>
